<mxfile host="app.diagrams.net" agent="Mozilla/5.0 (Windows NT 10.0; Win64; x64) AppleWebKit/537.36 (KHTML, like Gecko) Chrome/134.0.0.0 Safari/537.36 Edg/134.0.0.0" version="26.2.1">
  <diagram name="PÃ¡gina-1" id="kLRkJ3sM6tFVPQvNLgEm">
    <mxGraphModel dx="1019" dy="558" grid="1" gridSize="10" guides="1" tooltips="1" connect="1" arrows="1" fold="1" page="1" pageScale="1" pageWidth="827" pageHeight="1169" math="0" shadow="0">
      <root>
        <mxCell id="0" />
        <mxCell id="1" parent="0" />
        <mxCell id="1DeY9P6g2ABMb6L3CfrA-1" value="Cliente" style="swimlane;fontStyle=1;align=center;verticalAlign=top;childLayout=stackLayout;horizontal=1;startSize=30;horizontalStack=0;resizeParent=1;resizeParentMax=0;resizeLast=0;collapsible=1;marginBottom=0;whiteSpace=wrap;html=1;fillColor=#eeeeee;strokeColor=#36393d;strokeWidth=2;rounded=1;shadow=1;" parent="1" vertex="1">
          <mxGeometry x="40" y="80" width="200" height="194" as="geometry">
            <mxRectangle x="50" y="30" width="80" height="30" as="alternateBounds" />
          </mxGeometry>
        </mxCell>
        <mxCell id="1DeY9P6g2ABMb6L3CfrA-2" value="idCliente&lt;div&gt;&lt;br&gt;&lt;/div&gt;" style="text;strokeColor=none;fillColor=default;align=left;verticalAlign=top;spacingLeft=4;spacingRight=4;overflow=hidden;rotatable=0;points=[[0,0.5],[1,0.5]];portConstraint=eastwest;whiteSpace=wrap;html=1;" parent="1DeY9P6g2ABMb6L3CfrA-1" vertex="1">
          <mxGeometry y="30" width="200" height="26" as="geometry" />
        </mxCell>
        <mxCell id="1DeY9P6g2ABMb6L3CfrA-5" value="nombre" style="text;strokeColor=none;fillColor=default;align=left;verticalAlign=top;spacingLeft=4;spacingRight=4;overflow=hidden;rotatable=0;points=[[0,0.5],[1,0.5]];portConstraint=eastwest;whiteSpace=wrap;html=1;" parent="1DeY9P6g2ABMb6L3CfrA-1" vertex="1">
          <mxGeometry y="56" width="200" height="26" as="geometry" />
        </mxCell>
        <mxCell id="1DeY9P6g2ABMb6L3CfrA-6" value="direccion" style="text;strokeColor=none;fillColor=default;align=left;verticalAlign=top;spacingLeft=4;spacingRight=4;overflow=hidden;rotatable=0;points=[[0,0.5],[1,0.5]];portConstraint=eastwest;whiteSpace=wrap;html=1;" parent="1DeY9P6g2ABMb6L3CfrA-1" vertex="1">
          <mxGeometry y="82" width="200" height="26" as="geometry" />
        </mxCell>
        <mxCell id="1DeY9P6g2ABMb6L3CfrA-7" value="&lt;div&gt;mail&lt;/div&gt;" style="text;strokeColor=none;fillColor=default;align=left;verticalAlign=top;spacingLeft=4;spacingRight=4;overflow=hidden;rotatable=0;points=[[0,0.5],[1,0.5]];portConstraint=eastwest;whiteSpace=wrap;html=1;" parent="1DeY9P6g2ABMb6L3CfrA-1" vertex="1">
          <mxGeometry y="108" width="200" height="26" as="geometry" />
        </mxCell>
        <mxCell id="1DeY9P6g2ABMb6L3CfrA-8" value="&lt;div&gt;telefono&lt;/div&gt;" style="text;strokeColor=none;fillColor=default;align=left;verticalAlign=top;spacingLeft=4;spacingRight=4;overflow=hidden;rotatable=0;points=[[0,0.5],[1,0.5]];portConstraint=eastwest;whiteSpace=wrap;html=1;" parent="1DeY9P6g2ABMb6L3CfrA-1" vertex="1">
          <mxGeometry y="134" width="200" height="26" as="geometry" />
        </mxCell>
        <mxCell id="1DeY9P6g2ABMb6L3CfrA-3" value="" style="line;strokeWidth=1;fillColor=none;align=left;verticalAlign=middle;spacingTop=-1;spacingLeft=3;spacingRight=3;rotatable=0;labelPosition=right;points=[];portConstraint=eastwest;strokeColor=inherit;" parent="1DeY9P6g2ABMb6L3CfrA-1" vertex="1">
          <mxGeometry y="160" width="200" height="8" as="geometry" />
        </mxCell>
        <mxCell id="1DeY9P6g2ABMb6L3CfrA-4" value="+ method(type): type" style="text;strokeColor=none;fillColor=none;align=left;verticalAlign=top;spacingLeft=4;spacingRight=4;overflow=hidden;rotatable=0;points=[[0,0.5],[1,0.5]];portConstraint=eastwest;whiteSpace=wrap;html=1;" parent="1DeY9P6g2ABMb6L3CfrA-1" vertex="1">
          <mxGeometry y="168" width="200" height="26" as="geometry" />
        </mxCell>
        <mxCell id="1DeY9P6g2ABMb6L3CfrA-9" value="Articulo" style="swimlane;fontStyle=1;align=center;verticalAlign=top;childLayout=stackLayout;horizontal=1;startSize=26;horizontalStack=0;resizeParent=1;resizeParentMax=0;resizeLast=0;collapsible=1;marginBottom=0;whiteSpace=wrap;html=1;fillColor=#eeeeee;strokeColor=#36393d;strokeWidth=2;rounded=1;glass=0;shadow=1;swimlaneLine=1;" parent="1" vertex="1">
          <mxGeometry x="540" y="80" width="200" height="190" as="geometry" />
        </mxCell>
        <mxCell id="1DeY9P6g2ABMb6L3CfrA-10" value="idArticulo&lt;div&gt;&lt;br&gt;&lt;/div&gt;" style="text;strokeColor=none;fillColor=default;align=left;verticalAlign=top;spacingLeft=4;spacingRight=4;overflow=hidden;rotatable=0;points=[[0,0.5],[1,0.5]];portConstraint=eastwest;whiteSpace=wrap;html=1;" parent="1DeY9P6g2ABMb6L3CfrA-9" vertex="1">
          <mxGeometry y="26" width="200" height="26" as="geometry" />
        </mxCell>
        <mxCell id="1DeY9P6g2ABMb6L3CfrA-11" value="nombre" style="text;strokeColor=none;fillColor=default;align=left;verticalAlign=top;spacingLeft=4;spacingRight=4;overflow=hidden;rotatable=0;points=[[0,0.5],[1,0.5]];portConstraint=eastwest;whiteSpace=wrap;html=1;" parent="1DeY9P6g2ABMb6L3CfrA-9" vertex="1">
          <mxGeometry y="52" width="200" height="26" as="geometry" />
        </mxCell>
        <mxCell id="1DeY9P6g2ABMb6L3CfrA-14" value="&lt;div&gt;categoria&lt;/div&gt;" style="text;strokeColor=none;fillColor=default;align=left;verticalAlign=top;spacingLeft=4;spacingRight=4;overflow=hidden;rotatable=0;points=[[0,0.5],[1,0.5]];portConstraint=eastwest;whiteSpace=wrap;html=1;" parent="1DeY9P6g2ABMb6L3CfrA-9" vertex="1">
          <mxGeometry y="78" width="200" height="26" as="geometry" />
        </mxCell>
        <mxCell id="1DeY9P6g2ABMb6L3CfrA-13" value="&lt;div&gt;stock&lt;/div&gt;" style="text;strokeColor=none;fillColor=default;align=left;verticalAlign=top;spacingLeft=4;spacingRight=4;overflow=hidden;rotatable=0;points=[[0,0.5],[1,0.5]];portConstraint=eastwest;whiteSpace=wrap;html=1;" parent="1DeY9P6g2ABMb6L3CfrA-9" vertex="1">
          <mxGeometry y="104" width="200" height="26" as="geometry" />
        </mxCell>
        <mxCell id="1DeY9P6g2ABMb6L3CfrA-12" value="precio" style="text;strokeColor=none;fillColor=default;align=left;verticalAlign=top;spacingLeft=4;spacingRight=4;overflow=hidden;rotatable=0;points=[[0,0.5],[1,0.5]];portConstraint=eastwest;whiteSpace=wrap;html=1;" parent="1DeY9P6g2ABMb6L3CfrA-9" vertex="1">
          <mxGeometry y="130" width="200" height="26" as="geometry" />
        </mxCell>
        <mxCell id="1DeY9P6g2ABMb6L3CfrA-15" value="" style="line;strokeWidth=1;fillColor=none;align=left;verticalAlign=middle;spacingTop=-1;spacingLeft=3;spacingRight=3;rotatable=0;labelPosition=right;points=[];portConstraint=eastwest;strokeColor=inherit;" parent="1DeY9P6g2ABMb6L3CfrA-9" vertex="1">
          <mxGeometry y="156" width="200" height="8" as="geometry" />
        </mxCell>
        <mxCell id="1DeY9P6g2ABMb6L3CfrA-16" value="+ method(type): type" style="text;strokeColor=none;fillColor=none;align=left;verticalAlign=top;spacingLeft=4;spacingRight=4;overflow=hidden;rotatable=0;points=[[0,0.5],[1,0.5]];portConstraint=eastwest;whiteSpace=wrap;html=1;" parent="1DeY9P6g2ABMb6L3CfrA-9" vertex="1">
          <mxGeometry y="164" width="200" height="26" as="geometry" />
        </mxCell>
        <mxCell id="1DeY9P6g2ABMb6L3CfrA-17" value="Facturacion" style="swimlane;fontStyle=1;align=center;verticalAlign=top;childLayout=stackLayout;horizontal=1;startSize=26;horizontalStack=0;resizeParent=1;resizeParentMax=0;resizeLast=0;collapsible=1;marginBottom=0;whiteSpace=wrap;html=1;fillColor=#eeeeee;strokeColor=#36393d;strokeWidth=2;rounded=1;shadow=1;" parent="1" vertex="1">
          <mxGeometry x="290" y="130" width="200" height="216" as="geometry">
            <mxRectangle x="330" y="150" width="100" height="30" as="alternateBounds" />
          </mxGeometry>
        </mxCell>
        <mxCell id="1DeY9P6g2ABMb6L3CfrA-18" value="idFacturacion&lt;div&gt;&lt;br&gt;&lt;/div&gt;" style="text;align=left;verticalAlign=top;spacingLeft=4;spacingRight=4;overflow=hidden;rotatable=0;points=[[0,0.5],[1,0.5]];portConstraint=eastwest;whiteSpace=wrap;html=1;fillColor=default;" parent="1DeY9P6g2ABMb6L3CfrA-17" vertex="1">
          <mxGeometry y="26" width="200" height="26" as="geometry" />
        </mxCell>
        <mxCell id="1DeY9P6g2ABMb6L3CfrA-19" value="idCliente" style="text;align=left;verticalAlign=top;spacingLeft=4;spacingRight=4;overflow=hidden;rotatable=0;points=[[0,0.5],[1,0.5]];portConstraint=eastwest;whiteSpace=wrap;html=1;fillColor=default;" parent="1DeY9P6g2ABMb6L3CfrA-17" vertex="1">
          <mxGeometry y="52" width="200" height="26" as="geometry" />
        </mxCell>
        <mxCell id="1DeY9P6g2ABMb6L3CfrA-20" value="&lt;div&gt;idArticulo&lt;/div&gt;" style="text;align=left;verticalAlign=top;spacingLeft=4;spacingRight=4;overflow=hidden;rotatable=0;points=[[0,0.5],[1,0.5]];portConstraint=eastwest;whiteSpace=wrap;html=1;fillColor=default;" parent="1DeY9P6g2ABMb6L3CfrA-17" vertex="1">
          <mxGeometry y="78" width="200" height="26" as="geometry" />
        </mxCell>
        <mxCell id="1DeY9P6g2ABMb6L3CfrA-21" value="&lt;div&gt;cantidad&lt;/div&gt;" style="text;align=left;verticalAlign=top;spacingLeft=4;spacingRight=4;overflow=hidden;rotatable=0;points=[[0,0.5],[1,0.5]];portConstraint=eastwest;whiteSpace=wrap;html=1;fillColor=default;" parent="1DeY9P6g2ABMb6L3CfrA-17" vertex="1">
          <mxGeometry y="104" width="200" height="26" as="geometry" />
        </mxCell>
        <mxCell id="1DeY9P6g2ABMb6L3CfrA-26" value="FechaOrden" style="text;align=left;verticalAlign=top;spacingLeft=4;spacingRight=4;overflow=hidden;rotatable=0;points=[[0,0.5],[1,0.5]];portConstraint=eastwest;whiteSpace=wrap;html=1;fillColor=default;" parent="1DeY9P6g2ABMb6L3CfrA-17" vertex="1">
          <mxGeometry y="130" width="200" height="26" as="geometry" />
        </mxCell>
        <mxCell id="1DeY9P6g2ABMb6L3CfrA-25" value="total" style="text;align=left;verticalAlign=top;spacingLeft=4;spacingRight=4;overflow=hidden;rotatable=0;points=[[0,0.5],[1,0.5]];portConstraint=eastwest;whiteSpace=wrap;html=1;fillColor=default;" parent="1DeY9P6g2ABMb6L3CfrA-17" vertex="1">
          <mxGeometry y="156" width="200" height="26" as="geometry" />
        </mxCell>
        <mxCell id="1DeY9P6g2ABMb6L3CfrA-23" value="" style="line;strokeWidth=1;fillColor=none;align=left;verticalAlign=middle;spacingTop=-1;spacingLeft=3;spacingRight=3;rotatable=0;labelPosition=right;points=[];portConstraint=eastwest;strokeColor=inherit;" parent="1DeY9P6g2ABMb6L3CfrA-17" vertex="1">
          <mxGeometry y="182" width="200" height="8" as="geometry" />
        </mxCell>
        <mxCell id="1DeY9P6g2ABMb6L3CfrA-24" value="+ method(type): type" style="text;strokeColor=none;fillColor=none;align=left;verticalAlign=top;spacingLeft=4;spacingRight=4;overflow=hidden;rotatable=0;points=[[0,0.5],[1,0.5]];portConstraint=eastwest;whiteSpace=wrap;html=1;" parent="1DeY9P6g2ABMb6L3CfrA-17" vertex="1">
          <mxGeometry y="190" width="200" height="26" as="geometry" />
        </mxCell>
        <mxCell id="1DeY9P6g2ABMb6L3CfrA-30" style="edgeStyle=orthogonalEdgeStyle;rounded=0;orthogonalLoop=1;jettySize=auto;html=1;fillColor=#647687;strokeColor=#314354;" parent="1" source="1DeY9P6g2ABMb6L3CfrA-2" target="1DeY9P6g2ABMb6L3CfrA-19" edge="1">
          <mxGeometry relative="1" as="geometry" />
        </mxCell>
        <mxCell id="1DeY9P6g2ABMb6L3CfrA-35" style="edgeStyle=orthogonalEdgeStyle;rounded=0;orthogonalLoop=1;jettySize=auto;html=1;" parent="1" source="1DeY9P6g2ABMb6L3CfrA-10" target="1DeY9P6g2ABMb6L3CfrA-20" edge="1">
          <mxGeometry relative="1" as="geometry" />
        </mxCell>
        <mxCell id="1DeY9P6g2ABMb6L3CfrA-40" value="TIENDA ONLINE" style="text;html=1;align=center;verticalAlign=middle;whiteSpace=wrap;rounded=0;fontSize=25;fontStyle=1" parent="1" vertex="1">
          <mxGeometry x="262" y="20" width="268" height="50" as="geometry" />
        </mxCell>
        <mxCell id="DSfSfApRPqo2BNGAgtY--3" value="Cliente" style="rounded=0;whiteSpace=wrap;html=1;strokeWidth=2;shadow=1;fontSize=18;" vertex="1" parent="1">
          <mxGeometry x="155" y="480" width="120" height="60" as="geometry" />
        </mxCell>
        <mxCell id="DSfSfApRPqo2BNGAgtY--9" value="" style="endArrow=none;html=1;rounded=0;exitX=0.5;exitY=0;exitDx=0;exitDy=0;entryX=0.5;entryY=1;entryDx=0;entryDy=0;strokeWidth=2;" edge="1" parent="1" source="DSfSfApRPqo2BNGAgtY--3" target="DSfSfApRPqo2BNGAgtY--52">
          <mxGeometry width="50" height="50" relative="1" as="geometry">
            <mxPoint x="390" y="370" as="sourcePoint" />
            <mxPoint x="65" y="440" as="targetPoint" />
          </mxGeometry>
        </mxCell>
        <mxCell id="DSfSfApRPqo2BNGAgtY--10" value="" style="endArrow=none;html=1;rounded=0;exitX=0.5;exitY=0;exitDx=0;exitDy=0;entryX=0.5;entryY=1;entryDx=0;entryDy=0;strokeWidth=2;" edge="1" parent="1" source="DSfSfApRPqo2BNGAgtY--3" target="DSfSfApRPqo2BNGAgtY--51">
          <mxGeometry width="50" height="50" relative="1" as="geometry">
            <mxPoint x="212" y="490" as="sourcePoint" />
            <mxPoint x="140" y="440" as="targetPoint" />
          </mxGeometry>
        </mxCell>
        <mxCell id="DSfSfApRPqo2BNGAgtY--11" value="" style="endArrow=none;html=1;rounded=0;exitX=0.5;exitY=0;exitDx=0;exitDy=0;entryX=0.5;entryY=1;entryDx=0;entryDy=0;strokeWidth=2;" edge="1" parent="1" source="DSfSfApRPqo2BNGAgtY--3" target="DSfSfApRPqo2BNGAgtY--50">
          <mxGeometry width="50" height="50" relative="1" as="geometry">
            <mxPoint x="222" y="500" as="sourcePoint" />
            <mxPoint x="215" y="440" as="targetPoint" />
          </mxGeometry>
        </mxCell>
        <mxCell id="DSfSfApRPqo2BNGAgtY--12" value="" style="endArrow=none;html=1;rounded=0;exitX=0.5;exitY=0;exitDx=0;exitDy=0;entryX=0.5;entryY=1;entryDx=0;entryDy=0;strokeWidth=2;" edge="1" parent="1" source="DSfSfApRPqo2BNGAgtY--3" target="DSfSfApRPqo2BNGAgtY--49">
          <mxGeometry width="50" height="50" relative="1" as="geometry">
            <mxPoint x="232" y="510" as="sourcePoint" />
            <mxPoint x="291" y="440" as="targetPoint" />
          </mxGeometry>
        </mxCell>
        <mxCell id="DSfSfApRPqo2BNGAgtY--13" value="" style="endArrow=none;html=1;rounded=0;exitX=0.5;exitY=0;exitDx=0;exitDy=0;entryX=0.5;entryY=1;entryDx=0;entryDy=0;strokeWidth=2;" edge="1" parent="1" source="DSfSfApRPqo2BNGAgtY--3" target="DSfSfApRPqo2BNGAgtY--48">
          <mxGeometry width="50" height="50" relative="1" as="geometry">
            <mxPoint x="242" y="520" as="sourcePoint" />
            <mxPoint x="365" y="440" as="targetPoint" />
          </mxGeometry>
        </mxCell>
        <mxCell id="DSfSfApRPqo2BNGAgtY--14" value="Articulo" style="rounded=0;whiteSpace=wrap;html=1;strokeWidth=2;shadow=1;fontSize=18;" vertex="1" parent="1">
          <mxGeometry x="565" y="480" width="120" height="60" as="geometry" />
        </mxCell>
        <mxCell id="DSfSfApRPqo2BNGAgtY--20" value="" style="endArrow=none;html=1;rounded=0;exitX=0.5;exitY=0;exitDx=0;exitDy=0;entryX=0.5;entryY=1;entryDx=0;entryDy=0;strokeWidth=2;" edge="1" parent="1" source="DSfSfApRPqo2BNGAgtY--14" target="DSfSfApRPqo2BNGAgtY--58">
          <mxGeometry width="50" height="50" relative="1" as="geometry">
            <mxPoint x="800" y="370" as="sourcePoint" />
            <mxPoint x="475" y="440" as="targetPoint" />
          </mxGeometry>
        </mxCell>
        <mxCell id="DSfSfApRPqo2BNGAgtY--21" value="" style="endArrow=none;html=1;rounded=0;exitX=0.5;exitY=0;exitDx=0;exitDy=0;entryX=0.5;entryY=1;entryDx=0;entryDy=0;strokeWidth=2;" edge="1" parent="1" source="DSfSfApRPqo2BNGAgtY--14" target="DSfSfApRPqo2BNGAgtY--57">
          <mxGeometry width="50" height="50" relative="1" as="geometry">
            <mxPoint x="622" y="490" as="sourcePoint" />
            <mxPoint x="550" y="440" as="targetPoint" />
          </mxGeometry>
        </mxCell>
        <mxCell id="DSfSfApRPqo2BNGAgtY--22" value="" style="endArrow=none;html=1;rounded=0;exitX=0.5;exitY=0;exitDx=0;exitDy=0;entryX=0.5;entryY=1;entryDx=0;entryDy=0;strokeWidth=2;" edge="1" parent="1" source="DSfSfApRPqo2BNGAgtY--14" target="DSfSfApRPqo2BNGAgtY--56">
          <mxGeometry width="50" height="50" relative="1" as="geometry">
            <mxPoint x="632" y="500" as="sourcePoint" />
            <mxPoint x="625" y="440" as="targetPoint" />
          </mxGeometry>
        </mxCell>
        <mxCell id="DSfSfApRPqo2BNGAgtY--23" value="" style="endArrow=none;html=1;rounded=0;exitX=0.5;exitY=0;exitDx=0;exitDy=0;entryX=0.5;entryY=1;entryDx=0;entryDy=0;strokeWidth=2;" edge="1" parent="1" source="DSfSfApRPqo2BNGAgtY--14" target="DSfSfApRPqo2BNGAgtY--55">
          <mxGeometry width="50" height="50" relative="1" as="geometry">
            <mxPoint x="642" y="510" as="sourcePoint" />
            <mxPoint x="701" y="440" as="targetPoint" />
          </mxGeometry>
        </mxCell>
        <mxCell id="DSfSfApRPqo2BNGAgtY--24" value="" style="endArrow=none;html=1;rounded=0;exitX=0.5;exitY=0;exitDx=0;exitDy=0;entryX=0.5;entryY=1;entryDx=0;entryDy=0;strokeWidth=2;" edge="1" parent="1" source="DSfSfApRPqo2BNGAgtY--14" target="DSfSfApRPqo2BNGAgtY--54">
          <mxGeometry width="50" height="50" relative="1" as="geometry">
            <mxPoint x="652" y="520" as="sourcePoint" />
            <mxPoint x="775" y="440" as="targetPoint" />
          </mxGeometry>
        </mxCell>
        <mxCell id="DSfSfApRPqo2BNGAgtY--26" value="" style="endArrow=none;html=1;rounded=0;exitX=0;exitY=0;exitDx=0;exitDy=0;entryX=0.5;entryY=1;entryDx=0;entryDy=0;strokeWidth=2;" edge="1" parent="1" source="DSfSfApRPqo2BNGAgtY--64" target="DSfSfApRPqo2BNGAgtY--3">
          <mxGeometry width="50" height="50" relative="1" as="geometry">
            <mxPoint x="390" y="570" as="sourcePoint" />
            <mxPoint x="210" y="610" as="targetPoint" />
          </mxGeometry>
        </mxCell>
        <mxCell id="DSfSfApRPqo2BNGAgtY--27" value="" style="endArrow=none;html=1;rounded=0;exitX=0.5;exitY=1;exitDx=0;exitDy=0;entryX=1;entryY=0;entryDx=0;entryDy=0;strokeWidth=2;" edge="1" parent="1" source="DSfSfApRPqo2BNGAgtY--14" target="DSfSfApRPqo2BNGAgtY--64">
          <mxGeometry width="50" height="50" relative="1" as="geometry">
            <mxPoint x="394" y="563" as="sourcePoint" />
            <mxPoint x="225" y="550" as="targetPoint" />
          </mxGeometry>
        </mxCell>
        <mxCell id="DSfSfApRPqo2BNGAgtY--32" value="" style="endArrow=none;html=1;rounded=0;exitX=0.5;exitY=0;exitDx=0;exitDy=0;entryX=0.5;entryY=1;entryDx=0;entryDy=0;strokeWidth=2;" edge="1" parent="1" source="DSfSfApRPqo2BNGAgtY--63">
          <mxGeometry width="50" height="50" relative="1" as="geometry">
            <mxPoint x="301" y="810" as="sourcePoint" />
            <mxPoint x="414" y="760" as="targetPoint" />
          </mxGeometry>
        </mxCell>
        <mxCell id="DSfSfApRPqo2BNGAgtY--43" value="" style="endArrow=none;html=1;rounded=0;exitX=0.5;exitY=0;exitDx=0;exitDy=0;entryX=0.5;entryY=1;entryDx=0;entryDy=0;strokeWidth=2;" edge="1" parent="1" source="DSfSfApRPqo2BNGAgtY--62">
          <mxGeometry width="50" height="50" relative="1" as="geometry">
            <mxPoint x="376" y="810" as="sourcePoint" />
            <mxPoint x="414" y="760" as="targetPoint" />
          </mxGeometry>
        </mxCell>
        <mxCell id="DSfSfApRPqo2BNGAgtY--44" value="" style="endArrow=none;html=1;rounded=0;exitX=0.5;exitY=0;exitDx=0;exitDy=0;entryX=0.5;entryY=1;entryDx=0;entryDy=0;strokeWidth=2;" edge="1" parent="1" source="DSfSfApRPqo2BNGAgtY--61">
          <mxGeometry width="50" height="50" relative="1" as="geometry">
            <mxPoint x="451" y="810" as="sourcePoint" />
            <mxPoint x="414" y="760" as="targetPoint" />
          </mxGeometry>
        </mxCell>
        <mxCell id="DSfSfApRPqo2BNGAgtY--45" value="" style="endArrow=none;html=1;rounded=0;exitX=0.5;exitY=0;exitDx=0;exitDy=0;entryX=0.5;entryY=1;entryDx=0;entryDy=0;strokeWidth=2;" edge="1" parent="1" source="DSfSfApRPqo2BNGAgtY--60">
          <mxGeometry width="50" height="50" relative="1" as="geometry">
            <mxPoint x="527" y="810" as="sourcePoint" />
            <mxPoint x="414" y="760" as="targetPoint" />
          </mxGeometry>
        </mxCell>
        <mxCell id="DSfSfApRPqo2BNGAgtY--48" value="telefono" style="ellipse;whiteSpace=wrap;html=1;strokeWidth=2;shadow=1;" vertex="1" parent="1">
          <mxGeometry x="328" y="400" width="70" height="40" as="geometry" />
        </mxCell>
        <mxCell id="DSfSfApRPqo2BNGAgtY--49" value="mail" style="ellipse;whiteSpace=wrap;html=1;strokeWidth=2;shadow=1;" vertex="1" parent="1">
          <mxGeometry x="254" y="400" width="70" height="40" as="geometry" />
        </mxCell>
        <mxCell id="DSfSfApRPqo2BNGAgtY--50" value="direccion" style="ellipse;whiteSpace=wrap;html=1;strokeWidth=2;shadow=1;" vertex="1" parent="1">
          <mxGeometry x="180" y="400" width="70" height="40" as="geometry" />
        </mxCell>
        <mxCell id="DSfSfApRPqo2BNGAgtY--51" value="nombre" style="ellipse;whiteSpace=wrap;html=1;strokeWidth=2;shadow=1;" vertex="1" parent="1">
          <mxGeometry x="105" y="400" width="70" height="40" as="geometry" />
        </mxCell>
        <mxCell id="DSfSfApRPqo2BNGAgtY--52" value="idCliente" style="ellipse;whiteSpace=wrap;html=1;strokeWidth=2;shadow=1;" vertex="1" parent="1">
          <mxGeometry x="30" y="400" width="70" height="40" as="geometry" />
        </mxCell>
        <mxCell id="DSfSfApRPqo2BNGAgtY--54" value="precio" style="ellipse;whiteSpace=wrap;html=1;strokeWidth=2;shadow=1;" vertex="1" parent="1">
          <mxGeometry x="739" y="400" width="70" height="40" as="geometry" />
        </mxCell>
        <mxCell id="DSfSfApRPqo2BNGAgtY--55" value="stock" style="ellipse;whiteSpace=wrap;html=1;strokeWidth=2;shadow=1;" vertex="1" parent="1">
          <mxGeometry x="665" y="400" width="70" height="40" as="geometry" />
        </mxCell>
        <mxCell id="DSfSfApRPqo2BNGAgtY--56" value="categoria" style="ellipse;whiteSpace=wrap;html=1;strokeWidth=2;shadow=1;" vertex="1" parent="1">
          <mxGeometry x="591" y="400" width="70" height="40" as="geometry" />
        </mxCell>
        <mxCell id="DSfSfApRPqo2BNGAgtY--57" value="nombre" style="ellipse;whiteSpace=wrap;html=1;strokeWidth=2;shadow=1;" vertex="1" parent="1">
          <mxGeometry x="516" y="400" width="70" height="40" as="geometry" />
        </mxCell>
        <mxCell id="DSfSfApRPqo2BNGAgtY--58" value="idArticulo" style="ellipse;whiteSpace=wrap;html=1;strokeWidth=2;shadow=1;" vertex="1" parent="1">
          <mxGeometry x="441" y="400" width="70" height="40" as="geometry" />
        </mxCell>
        <mxCell id="DSfSfApRPqo2BNGAgtY--60" value="total" style="ellipse;whiteSpace=wrap;html=1;strokeWidth=2;shadow=1;" vertex="1" parent="1">
          <mxGeometry x="562" y="810" width="70" height="40" as="geometry" />
        </mxCell>
        <mxCell id="DSfSfApRPqo2BNGAgtY--61" value="fechaOrden" style="ellipse;whiteSpace=wrap;html=1;strokeWidth=2;shadow=1;" vertex="1" parent="1">
          <mxGeometry x="489" y="810" width="70" height="40" as="geometry" />
        </mxCell>
        <mxCell id="DSfSfApRPqo2BNGAgtY--62" value="cantidad" style="ellipse;whiteSpace=wrap;html=1;strokeWidth=2;shadow=1;" vertex="1" parent="1">
          <mxGeometry x="416" y="810" width="70" height="40" as="geometry" />
        </mxCell>
        <mxCell id="DSfSfApRPqo2BNGAgtY--63" value="idFacturacion" style="ellipse;whiteSpace=wrap;html=1;strokeWidth=2;shadow=1;" vertex="1" parent="1">
          <mxGeometry x="196" y="810" width="70" height="40" as="geometry" />
        </mxCell>
        <mxCell id="DSfSfApRPqo2BNGAgtY--64" value="COMPRA" style="rhombus;whiteSpace=wrap;html=1;fillColor=#647687;fontColor=#ffffff;strokeColor=#314354;shadow=1;strokeWidth=2;fontSize=18;fontStyle=0" vertex="1" parent="1">
          <mxGeometry x="354" y="540" width="120" height="130" as="geometry" />
        </mxCell>
        <mxCell id="DSfSfApRPqo2BNGAgtY--65" value="Facturacion" style="rounded=0;whiteSpace=wrap;html=1;strokeWidth=2;shadow=1;fontSize=18;" vertex="1" parent="1">
          <mxGeometry x="354" y="700" width="120" height="60" as="geometry" />
        </mxCell>
        <mxCell id="DSfSfApRPqo2BNGAgtY--71" value="" style="endArrow=none;html=1;rounded=0;exitX=0.5;exitY=0;exitDx=0;exitDy=0;entryX=0.5;entryY=1;entryDx=0;entryDy=0;strokeWidth=2;" edge="1" parent="1" source="DSfSfApRPqo2BNGAgtY--65" target="DSfSfApRPqo2BNGAgtY--64">
          <mxGeometry width="50" height="50" relative="1" as="geometry">
            <mxPoint x="360" y="680" as="sourcePoint" />
            <mxPoint x="280" y="670" as="targetPoint" />
          </mxGeometry>
        </mxCell>
        <mxCell id="DSfSfApRPqo2BNGAgtY--73" value="*" style="text;html=1;align=center;verticalAlign=middle;whiteSpace=wrap;rounded=0;fontSize=16;fontStyle=1" vertex="1" parent="1">
          <mxGeometry x="276" y="520" width="26" height="30" as="geometry" />
        </mxCell>
        <mxCell id="DSfSfApRPqo2BNGAgtY--74" value="1" style="text;html=1;align=center;verticalAlign=middle;whiteSpace=wrap;rounded=0;fontSize=16;fontStyle=1" vertex="1" parent="1">
          <mxGeometry x="537" y="520" width="26" height="30" as="geometry" />
        </mxCell>
        <mxCell id="DSfSfApRPqo2BNGAgtY--76" value="1" style="text;html=1;align=center;verticalAlign=middle;whiteSpace=wrap;rounded=0;fontSize=16;fontStyle=1" vertex="1" parent="1">
          <mxGeometry x="414" y="670" width="26" height="30" as="geometry" />
        </mxCell>
        <mxCell id="DSfSfApRPqo2BNGAgtY--77" value="idCliente" style="ellipse;whiteSpace=wrap;html=1;strokeWidth=2;shadow=1;" vertex="1" parent="1">
          <mxGeometry x="269" y="810" width="70" height="40" as="geometry" />
        </mxCell>
        <mxCell id="DSfSfApRPqo2BNGAgtY--78" value="idArticulo" style="ellipse;whiteSpace=wrap;html=1;strokeWidth=2;shadow=1;" vertex="1" parent="1">
          <mxGeometry x="343" y="810" width="70" height="40" as="geometry" />
        </mxCell>
        <mxCell id="DSfSfApRPqo2BNGAgtY--80" value="" style="endArrow=none;html=1;rounded=0;exitX=0.5;exitY=0;exitDx=0;exitDy=0;entryX=0.5;entryY=1;entryDx=0;entryDy=0;strokeWidth=2;" edge="1" parent="1" source="DSfSfApRPqo2BNGAgtY--77" target="DSfSfApRPqo2BNGAgtY--65">
          <mxGeometry width="50" height="50" relative="1" as="geometry">
            <mxPoint x="155" y="700" as="sourcePoint" />
            <mxPoint x="364" y="650" as="targetPoint" />
          </mxGeometry>
        </mxCell>
        <mxCell id="DSfSfApRPqo2BNGAgtY--81" value="" style="endArrow=none;html=1;rounded=0;exitX=0.5;exitY=0;exitDx=0;exitDy=0;entryX=0.5;entryY=1;entryDx=0;entryDy=0;strokeWidth=2;" edge="1" parent="1" source="DSfSfApRPqo2BNGAgtY--78" target="DSfSfApRPqo2BNGAgtY--65">
          <mxGeometry width="50" height="50" relative="1" as="geometry">
            <mxPoint x="295" y="820" as="sourcePoint" />
            <mxPoint x="424" y="770" as="targetPoint" />
          </mxGeometry>
        </mxCell>
        <mxCell id="DSfSfApRPqo2BNGAgtY--82" value="N:1" style="text;html=1;align=center;verticalAlign=middle;whiteSpace=wrap;rounded=0;fontSize=16;fontStyle=1" vertex="1" parent="1">
          <mxGeometry x="401" y="510" width="26" height="30" as="geometry" />
        </mxCell>
      </root>
    </mxGraphModel>
  </diagram>
</mxfile>
